<svg width="22" height="22" viewBox="0 0 22 22" fill="none" xmlns="http://www.w3.org/2000/svg">
<g clip-path="url(#clip0_70_1103)">
<path d="M9.68183 3.80246C10.5512 3.62078 11.4488 3.62078 12.3182 3.80246L13.8609 2.25879L15.158 3.55587L14.1955 4.51837C15.3288 5.17085 16.2368 6.15268 16.7988 7.33346H19.25V9.16679H17.3525C17.3947 9.46654 17.4167 9.77179 17.4167 10.0835V11.0001H19.25V12.8335H17.4167V13.7501C17.4167 14.0618 17.3947 14.367 17.3525 14.6668H19.25V16.5001H16.7988C16.2787 17.5979 15.4577 18.5256 14.4312 19.1752C13.4046 19.8247 12.2148 20.1696 11 20.1696C9.78521 20.1696 8.59537 19.8247 7.56884 19.1752C6.54231 18.5256 5.72126 17.5979 5.20117 16.5001H2.75V14.6668H4.6475C4.60442 14.3631 4.58298 14.0568 4.58333 13.7501V12.8335H2.75V11.0001H4.58333V10.0835C4.58333 9.77179 4.60533 9.46654 4.6475 9.16679H2.75V7.33346H5.20117C5.76306 6.15235 6.67105 5.17018 7.8045 4.51746L6.842 3.55496L8.14 2.25971L9.68275 3.80337L9.68183 3.80246ZM11 5.50012C9.78442 5.50012 8.61864 5.98301 7.75909 6.84255C6.89955 7.70209 6.41667 8.86788 6.41667 10.0835V13.7501C6.41667 14.9657 6.89955 16.1315 7.75909 16.991C8.61864 17.8506 9.78442 18.3335 11 18.3335C12.2156 18.3335 13.3814 17.8506 14.2409 16.991C15.1004 16.1315 15.5833 14.9657 15.5833 13.7501V10.0835C15.5833 8.86788 15.1004 7.70209 14.2409 6.84255C13.3814 5.98301 12.2156 5.50012 11 5.50012ZM8.25 12.8335H13.75V14.6668H8.25V12.8335ZM8.25 9.16679H13.75V11.0001H8.25V9.16679Z" fill="#2FDBBC"/>
</g>
<defs>
<clipPath id="clip0_70_1103">
<rect width="22" height="22" fill="white"/>
</clipPath>
</defs>
</svg>
